<?xml version="1.0" encoding="utf-8"?>
<!-- Generator: Adobe Illustrator 24.1.3, SVG Export Plug-In . SVG Version: 6.00 Build 0)  -->
<svg version="1.1" id="Layer_1" xmlns="http://www.w3.org/2000/svg" xmlns:xlink="http://www.w3.org/1999/xlink" x="0px" y="0px"
	 viewBox="0 0 128 128" style="enable-background:new 0 0 128 128;" xml:space="preserve">
<style type="text/css">
	.st0{fill:none;stroke:#000000;stroke-width:3;stroke-miterlimit:10;}
</style>
<g id="Layer_2_1_">
	<g id="Layer_2-2">
		<path class="st0" d="M5.2,59.2h3.7v8.5H5.2c-1.5,0-2.7-0.8-2.7-1.8v-5C2.5,60,3.7,59.2,5.2,59.2z"/>
		<rect x="35.4" y="59.2" class="st0" width="56.2" height="8.5"/>
		<path class="st0" d="M125.5,61v5c0,1-1.2,1.8-2.7,1.8H118v-8.6h4.8C124.3,59.2,125.5,60,125.5,61z"/>
		<path class="st0" d="M21.6,49.6v27.8c0,1.4-1.2,2.6-2.6,2.6h-7.4c-1.4,0-2.6-1.1-2.7-2.6V49.6c0-1.4,1.2-2.6,2.6-2.6l0,0h7.4
			C20.4,47,21.6,48.2,21.6,49.6L21.6,49.6z"/>
		<path class="st0" d="M35.4,44.5v39.1c0,1.4-1.2,2.6-2.7,2.6h-8.5c-1.4,0-2.6-1.1-2.6-2.6l0,0V44.5c0-1.4,1.2-2.6,2.6-2.6l0,0h8.5
			C34.2,41.9,35.3,43,35.4,44.5L35.4,44.5z"/>
		<path class="st0" d="M118.1,49.6v27.8c0,1.4-1.2,2.6-2.7,2.6H108c-1.4,0-2.6-1.1-2.7-2.6V49.6c0-1.4,1.2-2.6,2.6-2.6l0,0h7.4
			C116.9,47,118.1,48.2,118.1,49.6L118.1,49.6z"/>
		<path class="st0" d="M105.3,44.5v39.1c0,1.4-1.2,2.6-2.6,2.6l0,0h-8.5c-1.4,0-2.6-1.1-2.7-2.6V44.5c0-1.4,1.2-2.6,2.6-2.6l0,0h8.5
			C104.1,41.9,105.3,43,105.3,44.5L105.3,44.5z"/>
	</g>
</g>
</svg>
