<?xml version="1.0" encoding="utf-8"?>
<!-- Generator: Adobe Illustrator 24.1.3, SVG Export Plug-In . SVG Version: 6.00 Build 0)  -->
<svg version="1.1" id="Layer_1" xmlns="http://www.w3.org/2000/svg" xmlns:xlink="http://www.w3.org/1999/xlink" x="0px" y="0px"
	 viewBox="0 0 128 128" style="enable-background:new 0 0 128 128;" xml:space="preserve">
<style type="text/css">
	.st0{fill:none;stroke:#000000;stroke-width:3;stroke-miterlimit:10;}
</style>
<g id="Layer_2_1_">
	<g id="Layer_3">
		<path class="st0" d="M9.3,71.1h26.6c0.9,0,1.6,0.7,1.6,1.6v7.2c0,0.9-0.7,1.6-1.6,1.6H9.3c-0.9,0-1.6-0.7-1.6-1.6v-7.2
			C7.7,71.8,8.4,71.1,9.3,71.1z"/>
		<path class="st0" d="M9.3,115.1h26.6c0.9,0,1.6,0.7,1.6,1.6v7.2c0,0.9-0.7,1.6-1.6,1.6H9.3c-0.9,0-1.6-0.7-1.6-1.6v-7.2
			C7.7,115.9,8.4,115.1,9.3,115.1z"/>
		<rect x="15.5" y="81.5" class="st0" width="15.5" height="33.7"/>
		<path class="st0" d="M92.1,71.1h26.6c0.9,0,1.6,0.7,1.6,1.6v7.2c0,0.9-0.7,1.6-1.6,1.6H92.1c-0.9,0-1.6-0.7-1.6-1.6v-7.2
			C90.5,71.8,91.3,71.1,92.1,71.1z"/>
		<path class="st0" d="M92.1,115.1h26.6c0.9,0,1.6,0.7,1.6,1.6v7.2c0,0.9-0.7,1.6-1.6,1.6H92.1c-0.9,0-1.6-0.7-1.6-1.6v-7.2
			C90.5,115.9,91.3,115.1,92.1,115.1z"/>
		<rect x="98.3" y="81.5" class="st0" width="15.5" height="33.7"/>
		<path class="st0" d="M22.6,71.1L22,16.3c0-7.6,6.1-13.7,13.6-13.8h0.1h0.8c7.6,0,13.7,6.2,13.6,13.7v0.1L49.3,87
			c-0.1,7.6,5.9,13.8,13.5,13.9c0.1,0,0.1,0,0.2,0h1.1c7.5,0,13.6-6,13.7-13.5L78.7,16c0.1-7.5,6.2-13.5,13.7-13.5l0,0
			c7.6,0,13.7,6.1,13.7,13.7v54.9"/>
	</g>
</g>
</svg>
