<?xml version="1.0" encoding="utf-8"?>
<!-- Generator: Adobe Illustrator 24.1.3, SVG Export Plug-In . SVG Version: 6.00 Build 0)  -->
<svg version="1.1" id="Layer_1" xmlns="http://www.w3.org/2000/svg" xmlns:xlink="http://www.w3.org/1999/xlink" x="0px" y="0px"
	 viewBox="0 0 128 128" style="enable-background:new 0 0 128 128;" xml:space="preserve">
<style type="text/css">
	.st0{fill:none;stroke:#000000;stroke-width:3;stroke-miterlimit:10;}
</style>
<g id="Layer_2_1_">
	<g id="Layer_7">
		<path class="st0" d="M90,87.8v26.7h32.3c1.7,0,3.2-1.4,3.2-3.1l0,0V94.1c0-4.9-4-8.9-8.9-8.9l0,0H92.5C91.1,85.2,90,86.4,90,87.8
			L90,87.8z"/>
		<path class="st0" d="M10.1,101.7H90V90.3H21.7C15.4,90.3,10.2,95.4,10.1,101.7z"/>
		<path class="st0" d="M2.5,102.8v8c0,2,1.6,3.6,3.6,3.6l0,0H90v-12.7H3.5c-0.6,0-1,0.4-1,0.9C2.5,102.7,2.5,102.7,2.5,102.8z"/>
		<path class="st0" d="M84.2,43.9l6.6,6.6c0.6,0.6,1.6,0.6,2.2,0l0,0l27.6-27.6c0.6-0.6,0.6-1.7,0-2.3L114,14
			c-0.6-0.6-1.7-0.6-2.3,0l0,0L84.2,41.6C83.5,42.3,83.5,43.3,84.2,43.9L84.2,43.9z"/>
		<polygon class="st0" points="100.3,43.2 106.1,85.2 116.4,85.2 109.3,34.2 		"/>
		<path class="st0" d="M87.4,47.1l-2.3,2.7c-0.6,0.7-1.4,1.1-2.3,1.2H59"/>
		<path class="st0" d="M59,51L59,51L59,51C59,51,58.9,51,59,51C58.9,51,58.9,51,59,51z"/>
	</g>
</g>
</svg>
