<?xml version="1.0" encoding="utf-8"?>
<!-- Generator: Adobe Illustrator 24.1.3, SVG Export Plug-In . SVG Version: 6.00 Build 0)  -->
<svg version="1.1" id="Layer_1" xmlns="http://www.w3.org/2000/svg" xmlns:xlink="http://www.w3.org/1999/xlink" x="0px" y="0px"
	 viewBox="0 0 128 128" style="enable-background:new 0 0 128 128;" xml:space="preserve">
<style type="text/css">
	.st0{fill:none;stroke:#000000;stroke-width:3;stroke-miterlimit:10;}
</style>
<g id="Layer_2_1_">
	<g id="Layer_11">
		<rect x="36.9" y="55.5" class="st0" width="53.9" height="15.8"/>
		<path class="st0" d="M36.9,39.1V89c0,1.8-1.8,3.3-4.1,3.3H6.6c-2.3,0.1-4.1-1.5-4.1-3.3V39.1c0-1.8,1.8-3.3,4.1-3.3h26.2
			C35.1,35.8,36.9,37.3,36.9,39.1z"/>
		<path class="st0" d="M125.5,39.1V89c0,1.8-1.8,3.3-4.1,3.3H95.2c-2.3,0-4.1-1.5-4.1-3.3V39.1c0-1.8,1.8-3.3,4.1-3.3h26.2
			C123.7,35.8,125.5,37.3,125.5,39.1z"/>
	</g>
</g>
</svg>
