<?xml version="1.0" encoding="utf-8"?>
<!-- Generator: Adobe Illustrator 24.1.3, SVG Export Plug-In . SVG Version: 6.00 Build 0)  -->
<svg version="1.1" id="Layer_1" xmlns="http://www.w3.org/2000/svg" xmlns:xlink="http://www.w3.org/1999/xlink" x="0px" y="0px"
	 viewBox="0 0 128 128" style="enable-background:new 0 0 128 128;" xml:space="preserve">
<style type="text/css">
	.st0{fill:none;stroke:#000000;stroke-width:2;stroke-miterlimit:10;}
</style>
<g id="Layer_2_1_">
	<g id="Layer_10">
		<path class="st0" d="M80.6,97l-8.5-7.1c-0.7-0.6-0.9-1.8-0.2-2.5l0,0l1.8-2.1c0.6-0.7,1.8-0.9,2.5-0.2l12,10.1L122,67.7
			c0.6-0.5,1.5-0.4,2,0.2l1.4,1.7c0.5,0.6,0.4,1.5-0.2,2L94.2,97h15.9l-3.5-4.3c-0.5-0.6-0.4-1.5,0.2-2l1.7-1.4
			c0.6-0.5,1.5-0.4,2,0.2l6.1,7.5h8.4c0.6,0,1.1,0.5,1.1,1.1V98v1.9c0,0.6-0.5,1.1-1.1,1.1l0,0h-113v-6.3h6.2V97H80.6z"/>
		<path class="st0" d="M15.2,75.2c-4.3,0-7.7,3.4-7.7,7.7c0,4.3,3.4,7.7,7.7,7.7s7.7-3.4,7.7-7.7v-0.1
			C22.8,78.6,19.4,75.2,15.2,75.2L15.2,75.2z M15.2,85.9c-1.7,0-3.1-1.4-3.1-3.1c0-1.7,1.4-3.1,3.1-3.1s3.1,1.4,3.1,3.1
			C18.2,84.6,16.9,85.9,15.2,85.9C15.2,85.9,15.2,85.9,15.2,85.9z"/>
		<path class="st0" d="M60.2,65.8c-6.1,0-11.1,5-11.1,11.1c0,6.1,5,11.1,11.1,11.1s11.1-5,11.1-11.1l0,0
			C71.3,70.7,66.3,65.8,60.2,65.8L60.2,65.8z M60.2,82.6c-3.2,0-5.8-2.6-5.8-5.8S57,71,60.2,71c3.2,0,5.8,2.6,5.8,5.8
			C66,80,63.5,82.6,60.2,82.6L60.2,82.6z"/>
		<polygon class="st0" points="12.1,40.4 1.9,31.8 5.9,27 12.1,32.3 18.2,37.5 50.4,64.4 46.4,69.2 18.2,45.6 18.2,71.1 12.1,71.1 
					"/>
		<path class="st0" d="M69.3,64.2c-0.6-0.6-0.6-1.5,0-2l11.5-11.5c0.6-0.6,1.5-0.6,2,0l0,0l1.9,2c0.6,0.6,0.6,1.5,0,2L73.2,66.1
			c-0.6,0.6-1.5,0.6-2,0l0,0L69.3,64.2z"/>
	</g>
</g>
</svg>
