<svg xmlns="http://www.w3.org/2000/svg" viewBox="0 0 64 64"><defs><style>.cls-1{fill:#4caf50;}</style></defs><g id="Layer_2" data-name="Layer 2"><g id="Layer_1-2" data-name="Layer 1"><g id="Layer_2-2" data-name="Layer 2"><g id="Layer_1-2-2" data-name="Layer 1-2"><path class="cls-1" d="M64,32A32,32,0,1,1,54.93,9.67H45.59a26.14,26.14,0,0,0-30.27,2.2H59.66s-.68,1.66-2.83,7l-.11.25-.37.94-.1.24c-.24.58-.49,1.19-.75,1.84H7.78A26,26,0,0,0,12.9,49.84l.07.08,8-20.47H49.58L45.42,39.7,24,39.66l4.65,2.22L24,54.32l-5.51,0A26.16,26.16,0,0,0,57,24.27l3.09-7.64A31.83,31.83,0,0,1,64,32Z"/></g></g></g></g></svg>